<svg width="250" height="514" viewBox="0 0 372 514" fill="none" xmlns="http://www.w3.org/2000/svg">
<g filter="url(#filter0_d_1_4)">
<path fill-rule="evenodd" clip-rule="evenodd" d="M56.8341 0.742987C32.9611 4.78899 12.7291 23.429 5.83608 47.729C4.09808 53.853 4.01209 63.573 4.01209 252.658C4.01209 474.827 3.38309 455.674 11.2001 471.657C16.2321 481.947 28.0171 493.71 38.5121 498.918C53.2381 506.227 43.7541 505.783 185.512 505.8C327.36 505.818 317.7 506.27 332.512 498.918C342.874 493.776 354.624 482.028 359.777 471.658C367.643 455.831 367.012 474.924 367.012 252.658C367.012 63.128 366.929 53.864 365.177 47.658C361.598 34.982 353.748 22.826 343.811 14.573C337.09 8.99099 332.021 6.17199 322.902 2.94799L315.012 0.157987L188.512 0.0119871C118.937 -0.0680129 59.6821 0.260987 56.8341 0.742987ZM316.97 34.616C323.584 37.895 329.138 43.629 332.364 50.51L335.012 56.158V253.158V450.158L332.851 454.834C329.791 461.456 323.236 468.155 316.654 471.388L311.012 474.158H185.512H60.0121L54.3701 471.388C47.7881 468.155 41.2331 461.456 38.1731 454.834L36.0121 450.158V253.158C36.0121 65.757 36.1001 55.963 37.8081 52.158C42.1561 42.477 48.3731 36.533 57.5171 33.318C61.5351 31.905 75.2831 31.76 187.012 31.948L312.012 32.158L316.97 34.616ZM76.3601 56.619C71.1411 59.457 68.5111 64.204 68.5161 70.776C68.5231 80.6 74.5381 86.647 84.3121 86.654C93.3491 86.661 99.8211 81.449 101.063 73.165C101.605 69.552 101.277 67.767 99.3741 63.972C96.1561 57.555 92.8471 55.362 85.7751 54.96C81.4561 54.715 79.0971 55.131 76.3601 56.619ZM75.4641 117.911C73.6251 119.151 71.2481 121.658 70.1831 123.482C68.3091 126.691 68.2461 129.495 68.2501 209.529C68.2541 283.253 68.4271 292.594 69.8471 295.339C72.2291 299.945 76.9811 303.459 81.7671 304.151C84.1021 304.489 111.967 304.629 143.69 304.462C200.406 304.163 201.414 304.123 204.19 302.066C205.742 300.915 208.024 298.486 209.262 296.668L211.512 293.362V209.658V125.954L209.262 122.657C208.024 120.845 205.444 118.528 203.528 117.51C200.247 115.766 196.503 115.658 139.425 115.658H78.8081L75.4641 117.911ZM238.753 117.653C228.439 123.941 229.097 140.911 239.852 146.015C242.761 147.395 247.103 147.658 267.012 147.658C286.921 147.658 291.263 147.395 294.172 146.015C304.927 140.911 305.585 123.941 295.271 117.653C292.248 115.81 290.198 115.665 267.012 115.665C243.826 115.665 241.776 115.81 238.753 117.653ZM185.746 143.575L189.012 146.492L189.302 179.271C189.612 214.252 189.412 216.018 184.742 219.692C182.348 221.574 180.491 221.658 141.012 221.658C101.533 221.658 99.6761 221.574 97.2821 219.692C92.6121 216.018 92.4121 214.252 92.7221 179.271L93.0121 146.492L96.2781 143.575L99.5441 140.658H141.012H182.48L185.746 143.575ZM238.753 170.653C233.846 173.644 231.52 178.179 231.516 184.76C231.511 191.388 234.096 195.937 239.496 198.806C242.607 200.459 245.54 200.658 266.845 200.658C286.909 200.658 291.261 200.396 294.172 199.015C304.927 193.911 305.585 176.941 295.271 170.653C292.248 168.81 290.198 168.665 267.012 168.665C243.826 168.665 241.776 168.81 238.753 170.653ZM238.753 223.653C228.439 229.941 229.097 246.911 239.852 252.015C242.761 253.395 247.103 253.658 267.012 253.658C286.921 253.658 291.263 253.395 294.172 252.015C304.927 246.911 305.585 229.941 295.271 223.653C292.248 221.81 290.198 221.665 267.012 221.665C243.826 221.665 241.776 221.81 238.753 223.653ZM76.7861 379.751C74.4291 380.918 71.5981 383.4 70.3841 385.366C68.4391 388.512 68.2161 390.205 68.2991 401.207C68.4001 414.594 69.3121 417.782 74.1231 421.566C75.5801 422.713 78.4801 424.111 80.5671 424.673C83.0661 425.346 119.639 425.603 187.687 425.426C289.873 425.161 291.051 425.135 294.509 423.104C296.432 421.974 299.051 419.499 300.329 417.604C302.523 414.35 302.635 413.406 302.332 400.658C301.968 385.289 301.149 383.242 293.946 379.673C289.949 377.692 288.12 377.658 185.446 377.659C81.5011 377.66 80.9921 377.669 76.7861 379.751Z" fill="url(#paint0_linear_1_4)" shape-rendering="crispEdges"/>
</g>
<defs>
<filter id="filter0_d_1_4" x="0" y="0" width="371.024" height="513.811" filterUnits="userSpaceOnUse" color-interpolation-filters="sRGB">
<feFlood flood-opacity="0" result="BackgroundImageFix"/>
<feColorMatrix in="SourceAlpha" type="matrix" values="0 0 0 0 0 0 0 0 0 0 0 0 0 0 0 0 0 0 127 0" result="hardAlpha"/>
<feOffset dy="4"/>
<feGaussianBlur stdDeviation="2"/>
<feComposite in2="hardAlpha" operator="out"/>
<feColorMatrix type="matrix" values="0 0 0 0 0 0 0 0 0 0 0 0 0 0 0 0 0 0 0.59 0"/>
<feBlend mode="normal" in2="BackgroundImageFix" result="effect1_dropShadow_1_4"/>
<feBlend mode="normal" in="SourceGraphic" in2="effect1_dropShadow_1_4" result="shape"/>
</filter>
<linearGradient id="paint0_linear_1_4" x1="185.512" y1="1.29431e-06" x2="125" y2="928" gradientUnits="userSpaceOnUse">
<stop stop-color="#3881EE"/>
<stop offset="1" stop-color="#D66666" stop-opacity="0"/>
</linearGradient>
</defs>
</svg>
